<?xml version="1.0" encoding="UTF-8" standalone="no"?>
<!DOCTYPE svg PUBLIC "-//W3C//DTD SVG 1.1//EN"
 "http://www.w3.org/Graphics/SVG/1.1/DTD/svg11.dtd">
<!-- Generated by graphviz version 2.40.1 (20161225.0304)
 -->
<!-- Title: dependencies Pages: 1 -->
<svg width="4269pt" height="284pt"
 viewBox="0.00 0.00 4269.00 284.00" xmlns="http://www.w3.org/2000/svg" xmlns:xlink="http://www.w3.org/1999/xlink">
<g id="graph0" class="graph" transform="scale(1 1) rotate(0) translate(4 280)">
<title>dependencies</title>
<polygon fill="#ffffff" stroke="transparent" points="-4,4 -4,-280 4265,-280 4265,4 -4,4"/>
<text text-anchor="start" x="2109.5091" y="-42.4" font-family="sans-serif" font-weight="bold" font-size="14.00" fill="#000000">Legend</text>
<polygon fill="#ffffb3" stroke="transparent" points="1896.5,-10 1896.5,-30 1916.5,-30 1916.5,-10 1896.5,-10"/>
<text text-anchor="start" x="1920.129" y="-15.4" font-family="sans-serif" font-size="14.00" fill="#000000"> &#160;Declarations</text>
<polygon fill="#8dd3c7" stroke="transparent" points="2009.5,-10 2009.5,-30 2029.5,-30 2029.5,-10 2009.5,-10"/>
<text text-anchor="start" x="2033.2251" y="-15.4" font-family="sans-serif" font-size="14.00" fill="#000000"> &#160;Module</text>
<polygon fill="#80b1d3" stroke="transparent" points="2095.5,-10 2095.5,-30 2115.5,-30 2115.5,-10 2095.5,-10"/>
<text text-anchor="start" x="2119.2812" y="-15.4" font-family="sans-serif" font-size="14.00" fill="#000000"> &#160;Bootstrap</text>
<polygon fill="#fdb462" stroke="transparent" points="2192.5,-10 2192.5,-30 2212.5,-30 2212.5,-10 2192.5,-10"/>
<text text-anchor="start" x="2216.1732" y="-15.4" font-family="sans-serif" font-size="14.00" fill="#000000"> &#160;Providers</text>
<polygon fill="#fb8072" stroke="transparent" points="2288.5,-10 2288.5,-30 2308.5,-30 2308.5,-10 2288.5,-10"/>
<text text-anchor="start" x="2312.2258" y="-15.4" font-family="sans-serif" font-size="14.00" fill="#000000"> &#160;Exports</text>
<g id="clust1" class="cluster">
<title>cluster_AppModule</title>
<polygon fill="none" stroke="#000000" stroke-dasharray="1,5" points="8,-70 8,-268 4253,-268 4253,-70 8,-70"/>
</g>
<g id="clust2" class="cluster">
<title>cluster_AppModule_declarations</title>
<polygon fill="none" stroke="#000000" points="293,-78 293,-130 4245,-130 4245,-78 293,-78"/>
</g>
<g id="clust25" class="cluster">
<title>cluster_AppModule_imports</title>
<polygon fill="none" stroke="#000000" points="16,-78 16,-130 285,-130 285,-78 16,-78"/>
</g>
<g id="clust27" class="cluster">
<title>cluster_AppModule_bootstrap</title>
<polygon fill="none" stroke="#000000" points="2235,-208 2235,-260 2359,-260 2359,-208 2235,-208"/>
</g>
<!-- AccountManagerComponent -->
<g id="node1" class="node">
<title>AccountManagerComponent</title>
<polygon fill="#ffffb3" stroke="#000000" points="4237.0085,-122 4058.9915,-122 4058.9915,-86 4237.0085,-86 4237.0085,-122"/>
<text text-anchor="middle" x="4148" y="-99.8" font-family="Times,serif" font-size="14.00" fill="#000000">AccountManagerComponent</text>
</g>
<!-- AppModule -->
<g id="node23" class="node">
<title>AppModule</title>
<polygon fill="#8dd3c7" stroke="#000000" points="2338.6571,-187 2335.6571,-191 2314.6571,-191 2311.6571,-187 2255.3429,-187 2255.3429,-151 2338.6571,-151 2338.6571,-187"/>
<text text-anchor="middle" x="2297" y="-164.8" font-family="Times,serif" font-size="14.00" fill="#000000">AppModule</text>
</g>
<!-- AccountManagerComponent&#45;&gt;AppModule -->
<g id="edge1" class="edge">
<title>AccountManagerComponent&#45;&gt;AppModule</title>
<path fill="none" stroke="#000000" d="M4148,-122.1532C4148,-145.7566 4148,-184 4148,-184 4148,-184 2348.6962,-184 2348.6962,-184"/>
<polygon fill="#000000" stroke="#000000" points="2348.6962,-180.5001 2338.6962,-184 2348.6961,-187.5001 2348.6962,-180.5001"/>
</g>
<!-- AddStockComponent -->
<g id="node2" class="node">
<title>AddStockComponent</title>
<polygon fill="#ffffb3" stroke="#000000" points="4040.8272,-122 3903.1728,-122 3903.1728,-86 4040.8272,-86 4040.8272,-122"/>
<text text-anchor="middle" x="3972" y="-99.8" font-family="Times,serif" font-size="14.00" fill="#000000">AddStockComponent</text>
</g>
<!-- AddStockComponent&#45;&gt;AppModule -->
<g id="edge2" class="edge">
<title>AddStockComponent&#45;&gt;AppModule</title>
<path fill="none" stroke="#000000" d="M3972,-122.2479C3972,-145.0179 3972,-181 3972,-181 3972,-181 2348.8226,-181 2348.8226,-181"/>
<polygon fill="#000000" stroke="#000000" points="2348.8227,-177.5001 2338.8226,-181 2348.8226,-184.5001 2348.8227,-177.5001"/>
</g>
<!-- AppComponent -->
<g id="node3" class="node">
<title>AppComponent</title>
<polygon fill="#ffffb3" stroke="#000000" points="3885.9399,-122 3780.0601,-122 3780.0601,-86 3885.9399,-86 3885.9399,-122"/>
<text text-anchor="middle" x="3833" y="-99.8" font-family="Times,serif" font-size="14.00" fill="#000000">AppComponent</text>
</g>
<!-- AppComponent&#45;&gt;AppModule -->
<g id="edge3" class="edge">
<title>AppComponent&#45;&gt;AppModule</title>
<path fill="none" stroke="#000000" d="M3833,-122.2921C3833,-144.2057 3833,-178 3833,-178 3833,-178 2348.8809,-178 2348.8809,-178"/>
<polygon fill="#000000" stroke="#000000" points="2348.8809,-174.5001 2338.8809,-178 2348.8809,-181.5001 2348.8809,-174.5001"/>
</g>
<!-- ChangeMinThresholdComponent -->
<g id="node4" class="node">
<title>ChangeMinThresholdComponent</title>
<polygon fill="#ffffb3" stroke="#000000" points="3762.1965,-122 3557.8035,-122 3557.8035,-86 3762.1965,-86 3762.1965,-122"/>
<text text-anchor="middle" x="3660" y="-99.8" font-family="Times,serif" font-size="14.00" fill="#000000">ChangeMinThresholdComponent</text>
</g>
<!-- ChangeMinThresholdComponent&#45;&gt;AppModule -->
<g id="edge4" class="edge">
<title>ChangeMinThresholdComponent&#45;&gt;AppModule</title>
<path fill="none" stroke="#000000" d="M3660,-122.2843C3660,-143.3211 3660,-175 3660,-175 3660,-175 2348.9105,-175 2348.9105,-175"/>
<polygon fill="#000000" stroke="#000000" points="2348.9106,-171.5001 2338.9105,-175 2348.9105,-178.5001 2348.9106,-171.5001"/>
</g>
<!-- CreateAccountComponent -->
<g id="node5" class="node">
<title>CreateAccountComponent</title>
<polygon fill="#ffffb3" stroke="#000000" points="3539.7907,-122 3374.2093,-122 3374.2093,-86 3539.7907,-86 3539.7907,-122"/>
<text text-anchor="middle" x="3457" y="-99.8" font-family="Times,serif" font-size="14.00" fill="#000000">CreateAccountComponent</text>
</g>
<!-- CreateAccountComponent&#45;&gt;AppModule -->
<g id="edge5" class="edge">
<title>CreateAccountComponent&#45;&gt;AppModule</title>
<path fill="none" stroke="#000000" d="M3457,-122.2228C3457,-142.3652 3457,-172 3457,-172 3457,-172 2348.9703,-172 2348.9703,-172"/>
<polygon fill="#000000" stroke="#000000" points="2348.9704,-168.5001 2338.9703,-172 2348.9703,-175.5001 2348.9704,-168.5001"/>
</g>
<!-- DispatchChartComponent -->
<g id="node6" class="node">
<title>DispatchChartComponent</title>
<polygon fill="#ffffb3" stroke="#000000" points="3356.1965,-122 3193.8035,-122 3193.8035,-86 3356.1965,-86 3356.1965,-122"/>
<text text-anchor="middle" x="3275" y="-99.8" font-family="Times,serif" font-size="14.00" fill="#000000">DispatchChartComponent</text>
</g>
<!-- DispatchChartComponent&#45;&gt;AppModule -->
<g id="edge6" class="edge">
<title>DispatchChartComponent&#45;&gt;AppModule</title>
<path fill="none" stroke="#000000" d="M3275,-122.1061C3275,-141.3391 3275,-169 3275,-169 3275,-169 2348.7106,-169 2348.7106,-169"/>
<polygon fill="#000000" stroke="#000000" points="2348.7106,-165.5001 2338.7106,-169 2348.7105,-172.5001 2348.7106,-165.5001"/>
</g>
<!-- DriverComponent -->
<g id="node7" class="node">
<title>DriverComponent</title>
<polygon fill="#ffffb3" stroke="#000000" points="3175.8655,-122 3058.1345,-122 3058.1345,-86 3175.8655,-86 3175.8655,-122"/>
<text text-anchor="middle" x="3117" y="-99.8" font-family="Times,serif" font-size="14.00" fill="#000000">DriverComponent</text>
</g>
<!-- DriverComponent&#45;&gt;AppModule -->
<g id="edge7" class="edge">
<title>DriverComponent&#45;&gt;AppModule</title>
<path fill="none" stroke="#000000" d="M3117,-122.2667C3117,-140.5552 3117,-166 3117,-166 3117,-166 2348.7913,-166 2348.7913,-166"/>
<polygon fill="#000000" stroke="#000000" points="2348.7913,-162.5001 2338.7913,-166 2348.7912,-169.5001 2348.7913,-162.5001"/>
</g>
<!-- LoginComponent -->
<g id="node8" class="node">
<title>LoginComponent</title>
<polygon fill="#ffffb3" stroke="#000000" points="3040.2758,-122 2925.7242,-122 2925.7242,-86 3040.2758,-86 3040.2758,-122"/>
<text text-anchor="middle" x="2983" y="-99.8" font-family="Times,serif" font-size="14.00" fill="#000000">LoginComponent</text>
</g>
<!-- LoginComponent&#45;&gt;AppModule -->
<g id="edge8" class="edge">
<title>LoginComponent&#45;&gt;AppModule</title>
<path fill="none" stroke="#000000" d="M2983,-122.0225C2983,-139.3734 2983,-163 2983,-163 2983,-163 2348.8797,-163 2348.8797,-163"/>
<polygon fill="#000000" stroke="#000000" points="2348.8798,-159.5001 2338.8797,-163 2348.8797,-166.5001 2348.8798,-159.5001"/>
</g>
<!-- MainMenuComponent -->
<g id="node9" class="node">
<title>MainMenuComponent</title>
<polygon fill="#ffffb3" stroke="#000000" points="2907.5421,-122 2764.4579,-122 2764.4579,-86 2907.5421,-86 2907.5421,-122"/>
<text text-anchor="middle" x="2836" y="-99.8" font-family="Times,serif" font-size="14.00" fill="#000000">MainMenuComponent</text>
</g>
<!-- MainMenuComponent&#45;&gt;AppModule -->
<g id="edge9" class="edge">
<title>MainMenuComponent&#45;&gt;AppModule</title>
<path fill="none" stroke="#000000" d="M2836,-122.027C2836,-138.3976 2836,-160 2836,-160 2836,-160 2348.8459,-160 2348.8459,-160"/>
<polygon fill="#000000" stroke="#000000" points="2348.846,-156.5001 2338.8459,-160 2348.8459,-163.5001 2348.846,-156.5001"/>
</g>
<!-- OrderStockComponent -->
<g id="node10" class="node">
<title>OrderStockComponent</title>
<polygon fill="#ffffb3" stroke="#000000" points="2745.8627,-122 2600.1373,-122 2600.1373,-86 2745.8627,-86 2745.8627,-122"/>
<text text-anchor="middle" x="2673" y="-99.8" font-family="Times,serif" font-size="14.00" fill="#000000">OrderStockComponent</text>
</g>
<!-- OrderStockComponent&#45;&gt;AppModule -->
<g id="edge10" class="edge">
<title>OrderStockComponent&#45;&gt;AppModule</title>
<path fill="none" stroke="#000000" d="M2673,-122.2396C2673,-137.5706 2673,-157 2673,-157 2673,-157 2348.6752,-157 2348.6752,-157"/>
<polygon fill="#000000" stroke="#000000" points="2348.6752,-153.5001 2338.6752,-157 2348.6752,-160.5001 2348.6752,-153.5001"/>
</g>
<!-- POSComponent -->
<g id="node11" class="node">
<title>POSComponent</title>
<polygon fill="#ffffb3" stroke="#000000" points="2582.5042,-122 2475.4958,-122 2475.4958,-86 2582.5042,-86 2582.5042,-122"/>
<text text-anchor="middle" x="2529" y="-99.8" font-family="Times,serif" font-size="14.00" fill="#000000">POSComponent</text>
</g>
<!-- POSComponent&#45;&gt;AppModule -->
<g id="edge11" class="edge">
<title>POSComponent&#45;&gt;AppModule</title>
<path fill="none" stroke="#000000" d="M2529,-122.0511C2529,-136.373 2529,-154 2529,-154 2529,-154 2348.7449,-154 2348.7449,-154"/>
<polygon fill="#000000" stroke="#000000" points="2348.7449,-150.5001 2338.7449,-154 2348.7449,-157.5001 2348.7449,-150.5001"/>
</g>
<!-- QueryStockComponent -->
<g id="node12" class="node">
<title>QueryStockComponent</title>
<polygon fill="#ffffb3" stroke="#000000" points="2457.2021,-122 2308.7979,-122 2308.7979,-86 2457.2021,-86 2457.2021,-122"/>
<text text-anchor="middle" x="2383" y="-99.8" font-family="Times,serif" font-size="14.00" fill="#000000">QueryStockComponent</text>
</g>
<!-- QueryStockComponent&#45;&gt;AppModule -->
<g id="edge12" class="edge">
<title>QueryStockComponent&#45;&gt;AppModule</title>
<path fill="none" stroke="#000000" d="M2323.8636,-122.1061C2323.8636,-122.1061 2323.8636,-140.991 2323.8636,-140.991"/>
<polygon fill="#000000" stroke="#000000" points="2320.3637,-140.9909 2323.8636,-150.991 2327.3637,-140.991 2320.3637,-140.9909"/>
</g>
<!-- ReceiveStockComponent -->
<g id="node13" class="node">
<title>ReceiveStockComponent</title>
<polygon fill="#ffffb3" stroke="#000000" points="2291.3061,-122 2132.6939,-122 2132.6939,-86 2291.3061,-86 2291.3061,-122"/>
<text text-anchor="middle" x="2212" y="-99.8" font-family="Times,serif" font-size="14.00" fill="#000000">ReceiveStockComponent</text>
</g>
<!-- ReceiveStockComponent&#45;&gt;AppModule -->
<g id="edge13" class="edge">
<title>ReceiveStockComponent&#45;&gt;AppModule</title>
<path fill="none" stroke="#000000" d="M2273.1624,-122.1061C2273.1624,-122.1061 2273.1624,-140.991 2273.1624,-140.991"/>
<polygon fill="#000000" stroke="#000000" points="2269.6624,-140.9909 2273.1624,-150.991 2276.6624,-140.991 2269.6624,-140.9909"/>
</g>
<!-- RestaurantManagerComponent -->
<g id="node14" class="node">
<title>RestaurantManagerComponent</title>
<polygon fill="#ffffb3" stroke="#000000" points="2114.4482,-122 1923.5518,-122 1923.5518,-86 2114.4482,-86 2114.4482,-122"/>
<text text-anchor="middle" x="2019" y="-99.8" font-family="Times,serif" font-size="14.00" fill="#000000">RestaurantManagerComponent</text>
</g>
<!-- RestaurantManagerComponent&#45;&gt;AppModule -->
<g id="edge14" class="edge">
<title>RestaurantManagerComponent&#45;&gt;AppModule</title>
<path fill="none" stroke="#000000" d="M2019,-122.0511C2019,-136.373 2019,-154 2019,-154 2019,-154 2245.0796,-154 2245.0796,-154"/>
<polygon fill="#000000" stroke="#000000" points="2245.0796,-157.5001 2255.0796,-154 2245.0796,-150.5001 2245.0796,-157.5001"/>
</g>
<!-- RestaurantOrdersComponent -->
<g id="node15" class="node">
<title>RestaurantOrdersComponent</title>
<polygon fill="#ffffb3" stroke="#000000" points="1905.7864,-122 1726.2136,-122 1726.2136,-86 1905.7864,-86 1905.7864,-122"/>
<text text-anchor="middle" x="1816" y="-99.8" font-family="Times,serif" font-size="14.00" fill="#000000">RestaurantOrdersComponent</text>
</g>
<!-- RestaurantOrdersComponent&#45;&gt;AppModule -->
<g id="edge15" class="edge">
<title>RestaurantOrdersComponent&#45;&gt;AppModule</title>
<path fill="none" stroke="#000000" d="M1816,-122.2396C1816,-137.5706 1816,-157 1816,-157 1816,-157 2245.1558,-157 2245.1558,-157"/>
<polygon fill="#000000" stroke="#000000" points="2245.1559,-160.5001 2255.1558,-157 2245.1558,-153.5001 2245.1559,-160.5001"/>
</g>
<!-- RestaurantStockRemoveComponent -->
<g id="node16" class="node">
<title>RestaurantStockRemoveComponent</title>
<polygon fill="#ffffb3" stroke="#000000" points="1707.7435,-122 1488.2565,-122 1488.2565,-86 1707.7435,-86 1707.7435,-122"/>
<text text-anchor="middle" x="1598" y="-99.8" font-family="Times,serif" font-size="14.00" fill="#000000">RestaurantStockRemoveComponent</text>
</g>
<!-- RestaurantStockRemoveComponent&#45;&gt;AppModule -->
<g id="edge16" class="edge">
<title>RestaurantStockRemoveComponent&#45;&gt;AppModule</title>
<path fill="none" stroke="#000000" d="M1598,-122.027C1598,-138.3976 1598,-160 1598,-160 1598,-160 2245.1085,-160 2245.1085,-160"/>
<polygon fill="#000000" stroke="#000000" points="2245.1085,-163.5001 2255.1085,-160 2245.1084,-156.5001 2245.1085,-163.5001"/>
</g>
<!-- TotalStockComponent -->
<g id="node17" class="node">
<title>TotalStockComponent</title>
<polygon fill="#ffffb3" stroke="#000000" points="1470.2688,-122 1327.7312,-122 1327.7312,-86 1470.2688,-86 1470.2688,-122"/>
<text text-anchor="middle" x="1399" y="-99.8" font-family="Times,serif" font-size="14.00" fill="#000000">TotalStockComponent</text>
</g>
<!-- TotalStockComponent&#45;&gt;AppModule -->
<g id="edge17" class="edge">
<title>TotalStockComponent&#45;&gt;AppModule</title>
<path fill="none" stroke="#000000" d="M1399,-122.0225C1399,-139.3734 1399,-163 1399,-163 1399,-163 2245.1908,-163 2245.1908,-163"/>
<polygon fill="#000000" stroke="#000000" points="2245.1908,-166.5001 2255.1908,-163 2245.1908,-159.5001 2245.1908,-166.5001"/>
</g>
<!-- ViewOrderComponent -->
<g id="node18" class="node">
<title>ViewOrderComponent</title>
<polygon fill="#ffffb3" stroke="#000000" points="1309.2935,-122 1164.7065,-122 1164.7065,-86 1309.2935,-86 1309.2935,-122"/>
<text text-anchor="middle" x="1237" y="-99.8" font-family="Times,serif" font-size="14.00" fill="#000000">ViewOrderComponent</text>
</g>
<!-- ViewOrderComponent&#45;&gt;AppModule -->
<g id="edge18" class="edge">
<title>ViewOrderComponent&#45;&gt;AppModule</title>
<path fill="none" stroke="#000000" d="M1237,-122.2667C1237,-140.5552 1237,-166 1237,-166 1237,-166 2245.1203,-166 2245.1203,-166"/>
<polygon fill="#000000" stroke="#000000" points="2245.1203,-169.5001 2255.1203,-166 2245.1202,-162.5001 2245.1203,-169.5001"/>
</g>
<!-- ViewPermissionsComponent -->
<g id="node19" class="node">
<title>ViewPermissionsComponent</title>
<polygon fill="#ffffb3" stroke="#000000" points="1146.8145,-122 967.1855,-122 967.1855,-86 1146.8145,-86 1146.8145,-122"/>
<text text-anchor="middle" x="1057" y="-99.8" font-family="Times,serif" font-size="14.00" fill="#000000">ViewPermissionsComponent</text>
</g>
<!-- ViewPermissionsComponent&#45;&gt;AppModule -->
<g id="edge19" class="edge">
<title>ViewPermissionsComponent&#45;&gt;AppModule</title>
<path fill="none" stroke="#000000" d="M1057,-122.1061C1057,-141.3391 1057,-169 1057,-169 1057,-169 2245.0325,-169 2245.0325,-169"/>
<polygon fill="#000000" stroke="#000000" points="2245.0325,-172.5001 2255.0325,-169 2245.0324,-165.5001 2245.0325,-172.5001"/>
</g>
<!-- ViewReceivedOrderComponent -->
<g id="node20" class="node">
<title>ViewReceivedOrderComponent</title>
<polygon fill="#ffffb3" stroke="#000000" points="949.3792,-122 752.6208,-122 752.6208,-86 949.3792,-86 949.3792,-122"/>
<text text-anchor="middle" x="851" y="-99.8" font-family="Times,serif" font-size="14.00" fill="#000000">ViewReceivedOrderComponent</text>
</g>
<!-- ViewReceivedOrderComponent&#45;&gt;AppModule -->
<g id="edge20" class="edge">
<title>ViewReceivedOrderComponent&#45;&gt;AppModule</title>
<path fill="none" stroke="#000000" d="M851,-122.2228C851,-142.3652 851,-172 851,-172 851,-172 2245.2835,-172 2245.2835,-172"/>
<polygon fill="#000000" stroke="#000000" points="2245.2835,-175.5001 2255.2835,-172 2245.2834,-168.5001 2245.2835,-175.5001"/>
</g>
<!-- WarehouseManagerComponent -->
<g id="node21" class="node">
<title>WarehouseManagerComponent</title>
<polygon fill="#ffffb3" stroke="#000000" points="735.045,-122 540.955,-122 540.955,-86 735.045,-86 735.045,-122"/>
<text text-anchor="middle" x="638" y="-99.8" font-family="Times,serif" font-size="14.00" fill="#000000">WarehouseManagerComponent</text>
</g>
<!-- WarehouseManagerComponent&#45;&gt;AppModule -->
<g id="edge21" class="edge">
<title>WarehouseManagerComponent&#45;&gt;AppModule</title>
<path fill="none" stroke="#000000" d="M638,-122.2843C638,-143.3211 638,-175 638,-175 638,-175 2245.1611,-175 2245.1611,-175"/>
<polygon fill="#000000" stroke="#000000" points="2245.1611,-178.5001 2255.1611,-175 2245.161,-171.5001 2245.1611,-178.5001"/>
</g>
<!-- WarehouseStockRemoveComponent -->
<g id="node22" class="node">
<title>WarehouseStockRemoveComponent</title>
<polygon fill="#ffffb3" stroke="#000000" points="523.3403,-122 300.6597,-122 300.6597,-86 523.3403,-86 523.3403,-122"/>
<text text-anchor="middle" x="412" y="-99.8" font-family="Times,serif" font-size="14.00" fill="#000000">WarehouseStockRemoveComponent</text>
</g>
<!-- WarehouseStockRemoveComponent&#45;&gt;AppModule -->
<g id="edge22" class="edge">
<title>WarehouseStockRemoveComponent&#45;&gt;AppModule</title>
<path fill="none" stroke="#000000" d="M412,-122.2921C412,-144.2057 412,-178 412,-178 412,-178 2244.9862,-178 2244.9862,-178"/>
<polygon fill="#000000" stroke="#000000" points="2244.9862,-181.5001 2254.9862,-178 2244.9862,-174.5001 2244.9862,-181.5001"/>
</g>
<!-- AppComponent  -->
<g id="node26" class="node">
<title>AppComponent </title>
<polygon fill="#80b1d3" stroke="#000000" points="2351.439,-252 2242.561,-252 2242.561,-216 2351.439,-216 2351.439,-252"/>
<text text-anchor="middle" x="2297" y="-229.8" font-family="Times,serif" font-size="14.00" fill="#000000">AppComponent </text>
</g>
<!-- AppModule&#45;&gt;AppComponent  -->
<g id="edge25" class="edge">
<title>AppModule&#45;&gt;AppComponent </title>
<path fill="none" stroke="#000000" stroke-dasharray="1,5" d="M2297,-187.1061C2297,-187.1061 2297,-205.991 2297,-205.991"/>
<polygon fill="#000000" stroke="#000000" points="2293.5001,-205.9909 2297,-215.991 2300.5001,-205.991 2293.5001,-205.9909"/>
</g>
<!-- AppRoutingModule -->
<g id="node24" class="node">
<title>AppRoutingModule</title>
<polygon fill="#8dd3c7" stroke="#000000" points="277.2744,-122 274.2744,-126 253.2744,-126 250.2744,-122 148.7256,-122 148.7256,-86 277.2744,-86 277.2744,-122"/>
<text text-anchor="middle" x="213" y="-99.8" font-family="Times,serif" font-size="14.00" fill="#000000">AppRoutingModule</text>
</g>
<!-- AppRoutingModule&#45;&gt;AppModule -->
<g id="edge23" class="edge">
<title>AppRoutingModule&#45;&gt;AppModule</title>
<path fill="none" stroke="#000000" d="M213,-122.2479C213,-145.0179 213,-181 213,-181 213,-181 2244.9004,-181 2244.9004,-181"/>
<polygon fill="#000000" stroke="#000000" points="2244.9004,-184.5001 2254.9004,-181 2244.9003,-177.5001 2244.9004,-184.5001"/>
</g>
<!-- MaterialModule -->
<g id="node25" class="node">
<title>MaterialModule</title>
<polygon fill="#8dd3c7" stroke="#000000" points="130.4706,-122 127.4706,-126 106.4706,-126 103.4706,-122 23.5294,-122 23.5294,-86 130.4706,-86 130.4706,-122"/>
<text text-anchor="middle" x="77" y="-99.8" font-family="Times,serif" font-size="14.00" fill="#000000">MaterialModule</text>
</g>
<!-- MaterialModule&#45;&gt;AppModule -->
<g id="edge24" class="edge">
<title>MaterialModule&#45;&gt;AppModule</title>
<path fill="none" stroke="#000000" d="M77,-122.1532C77,-145.7566 77,-184 77,-184 77,-184 2245.1233,-184 2245.1233,-184"/>
<polygon fill="#000000" stroke="#000000" points="2245.1234,-187.5001 2255.1233,-184 2245.1233,-180.5001 2245.1234,-187.5001"/>
</g>
</g>
</svg>
